<svg version="1.1" viewBox="0.0 0.0 113.71391076115485 100.12073490813648" fill="none" stroke="none" stroke-linecap="square" stroke-miterlimit="10" xmlns:xlink="http://www.w3.org/1999/xlink" xmlns="http://www.w3.org/2000/svg"><clipPath id="p.0"><path d="m0 0l113.71391 0l0 100.120735l-113.71391 0l0 -100.120735z" clip-rule="nonzero"/></clipPath><g clip-path="url(#p.0)"><path fill="#000000" fill-opacity="0.0" d="m0 0l113.71391 0l0 100.120735l-113.71391 0z" fill-rule="evenodd"/><path fill="#000000" fill-opacity="0.0" d="m10.060368 49.769028l45.889763 -45.889763l45.889767 45.889763l-45.889767 45.889763z" fill-rule="evenodd"/><path stroke="#000000" stroke-width="1.0" stroke-linejoin="round" stroke-linecap="butt" d="m10.060368 49.769028l45.889763 -45.889763l45.889767 45.889763l-45.889767 45.889763z" fill-rule="evenodd"/><path fill="#000000" fill-opacity="0.0" d="m-27.516346 23.394892l172.12598 0l0 42.551186l-172.12598 0z" fill-rule="evenodd"/><path fill="#000000" d="m21.54179 61.65673q-3.5625 0 -6.46875 -1.625q-2.890625 -1.640625 -4.578125 -4.484375q-1.671875 -2.859375 -1.671875 -6.40625q0 -3.515625 1.671875 -6.390625q1.6875 -2.875 4.578125 -4.5q2.90625 -1.640625 6.46875 -1.640625q2.828125 0 5.25 0.8125q2.421875 0.8125 4.109375 2.40625l-0.578125 0.671875q-3.3125 -2.984375 -8.78125 -2.984375q-3.265625 0 -5.9375 1.515625q-2.65625 1.515625 -4.21875 4.140625q-1.5625 2.609375 -1.609375 5.8125l14.984375 0l0 0.875l-14.984375 0q0.1875 3.109375 1.765625 5.609375q1.59375 2.5 4.203125 3.921875q2.625 1.40625 5.796875 1.40625q5.421875 0 8.78125 -3.015625l0.578125 0.609375q-1.6875 1.59375 -4.109375 2.4375q-2.421875 0.828125 -5.25 0.828125zm35.53856 -24.71875l-11.421875 24.8125l-0.953125 0l-11.4375 -24.8125l1.109375 0l10.796875 23.703125l10.796875 -23.703125l1.109375 0zm13.727802 -0.140625q4.328125 0 6.59375 2.234375q2.28125 2.21875 2.28125 6.453125l0 16.265625l-0.953125 0l0 -5.28125q-1.203125 2.546875 -3.625 3.984375q-2.421875 1.4375 -5.828125 1.4375q-4.125 0 -6.453129 -1.890625q-2.328125 -1.890625 -2.328125 -5.0625q0 -2.984375 2.078125 -4.828125q2.0937538 -1.84375 6.750004 -1.84375l9.40625 0l0 -2.734375q0 -3.890625 -2.0 -5.859375q-1.984375 -1.96875 -5.875 -1.96875q-2.6875 0 -5.015625 0.9375q-2.3281288 0.9375 -4.000004 2.515625l-0.671875 -0.671875q1.765625 -1.71875 4.312504 -2.703125q2.546875 -0.984375 5.328125 -0.984375zm-1.53125 24.1875q6.90625 0 9.453125 -6.34375l0 -5.46875l-9.453125 0q-4.03125 0 -5.937504 1.546875q-1.890625 1.53125 -1.890625 4.171875q0 2.828125 2.0625 4.46875q2.0625038 1.625 5.765629 1.625zm30.427063 0.90625q-3.5 0 -6.28125 -1.609375q-2.78125 -1.609375 -4.34375 -4.453125q-1.5625 -2.859375 -1.5625 -6.515625q0 -3.640625 1.5625 -6.5q1.5625 -2.859375 4.34375 -4.4375q2.78125 -1.578125 6.28125 -1.578125q2.734375 0 5.0625 1.03125q2.328125 1.03125 3.875 3.0l-0.671875 0.71875q-1.40625 -1.921875 -3.5625 -2.875q-2.15625 -0.96875 -4.703125 -0.96875q-3.21875 0 -5.78125 1.46875q-2.5625 1.453125 -4.015625 4.125q-1.4375 2.65625 -1.4375 6.015625q0 3.40625 1.4375 6.046875q1.453125 2.640625 4.015625 4.140625q2.5625 1.484375 5.78125 1.484375q2.546875 0 4.703125 -0.953125q2.15625 -0.96875 3.5625 -2.890625l0.671875 0.71875q-1.546875 1.96875 -3.875 3.0q-2.328125 1.03125 -5.0625 1.03125z" fill-rule="nonzero"/><path fill="#000000" d="m33.32021 31.446194l22.629921 -21.858267l22.629925 21.858267z" fill-rule="evenodd"/><path fill="#000000" d="m78.580055 65.944885l-22.629925 21.858261l-22.629921 -21.858261z" fill-rule="evenodd"/></g></svg>